<?xml version="1.0" encoding="utf-8"?>
<!-- Generator: Adobe Illustrator 16.0.0, SVG Export Plug-In . SVG Version: 6.00 Build 0)  -->
<!DOCTYPE svg PUBLIC "-//W3C//DTD SVG 1.1//EN" "http://www.w3.org/Graphics/SVG/1.1/DTD/svg11.dtd">
<svg version="1.1" id="Calque_1" xmlns:sketch="http://www.bohemiancoding.com/sketch/ns"
	 xmlns="http://www.w3.org/2000/svg" xmlns:xlink="http://www.w3.org/1999/xlink" x="0px" y="0px" width="1280px" height="800px"
	 viewBox="0 0 1280 800" enable-background="new 0 0 1280 800" xml:space="preserve">
<title>shrivatsa-losange</title>
<desc>Created with Sketch.</desc>
<path fill="#FFFFFF" stroke="#000000" stroke-width="2" stroke-miterlimit="10" d=" M650.828,142.878
	l13.148-13.149l92.041,92.042l-46.406,46.408l-12.377,12.376l-26.297-26.298l32.486-32.486l-39.447-39.446l-39.447,39.447
	l-26.298,26.297l-32.484,32.484l-26.297-26.297l32.484-32.484l26.297-26.298L650.828,142.878z M565.748,412.042l-26.298-26.298
	l32.485-32.485l26.298-26.297l32.485-32.485l26.297,26.297l-32.485,32.485l-26.298,26.298L565.748,412.042z M591.272,451.488
	l-26.298,26.297l-32.485-32.484l-26.297-26.298l-32.485-32.485l26.297-26.298l32.485,32.485l26.298,26.298L591.272,451.488z
	 M637.679,287.515l-32.485-32.485l26.298-26.298l32.485,32.485l26.299,26.297L722.76,320l-26.297,26.298l-32.486-32.485
	L637.679,287.515z M532.489,129.729l13.148,13.148l45.634,45.634l-26.297,26.297l-32.485-32.485l-39.446,39.446l33.259,33.259
	l6.188,6.188l26.298,26.298L591.271,320l-26.297,26.298l-32.484-32.485l-26.299-26.298l-19.336-19.336l-46.408-46.408
	L532.489,129.729z M387.853,432.151l-78.894-78.894L401,261.217l13.149,13.148L459.785,320l-26.298,26.297l-32.485-32.485
	l-39.446,39.446l39.446,39.446l39.446-39.446l26.298-26.297l32.485-32.485l26.297,26.298l-32.484,32.485l-26.298,26.298
	l-65.744,65.744L387.853,432.151z M532.49,576.788L519.34,563.64l-65.744-65.745l-13.149-13.148l58.783-58.783l26.298,26.299
	l-32.484,32.485l39.446,39.446l39.446-39.446l26.297-26.298l32.485-32.485l26.297,26.298l-32.485,32.485l-26.298,26.297
	L532.49,576.788z M742.869,497.896l-65.744,65.744l-13.148,13.149l-58.783-58.783l26.298-26.298l32.485,32.485l39.447-39.446
	L663.977,445.3l-26.296-26.297l-32.485-32.485l26.297-26.298l32.485,32.485l26.299,26.298l65.744,65.744L742.869,497.896z
	 M809,431.765l-13.535,13.536l-58.783-58.783l26.297-26.297l32.486,32.485l39.447-39.447l-39.447-39.447l-39.447,39.447
	l-26.297,26.298l-32.484,32.484l-26.299-26.297l32.484-32.484l26.299-26.298l52.596-52.596l13.148-13.149l92.041,92.042L809,431.765
	z"/>
</svg>
