<?xml version="1.0" encoding="utf-8"?>
<!-- Generator: Adobe Illustrator 16.0.0, SVG Export Plug-In . SVG Version: 6.00 Build 0)  -->
<!DOCTYPE svg PUBLIC "-//W3C//DTD SVG 1.1//EN" "http://www.w3.org/Graphics/SVG/1.1/DTD/svg11.dtd">
<svg version="1.1" id="Calque_1" xmlns="http://www.w3.org/2000/svg" xmlns:xlink="http://www.w3.org/1999/xlink" x="0px" y="0px"
	 width="17.916px" height="18.042px" viewBox="102 -2.333 17.916 18.042" enable-background="new 102 -2.333 17.916 18.042"
	 xml:space="preserve">
<g>
	<g>
		<line fill="none" stroke="#FFFFFF" stroke-miterlimit="10" x1="104.149" y1="6.688" x2="109.158" y2="6.688"/>
		<line fill="none" stroke="#FFFFFF" stroke-miterlimit="10" x1="112.271" y1="6.688" x2="117.279" y2="6.688"/>
		<line fill="none" stroke="#FFFFFF" stroke-miterlimit="10" x1="110.667" y1="0.124" x2="110.667" y2="5.131"/>
		<line fill="none" stroke="#FFFFFF" stroke-miterlimit="10" x1="110.667" y1="8.246" x2="110.667" y2="13.252"/>
		<rect x="104.149" y="0.124" fill="none" stroke="#FFFFFF" stroke-miterlimit="10" width="13.13" height="13.128"/>
	</g>
	
		<ellipse transform="matrix(1 -0.0054 0.0054 1 -0.0094 0.5954)" fill="none" stroke="#FFFFFF" stroke-miterlimit="10" cx="110.628" cy="2.036" rx="2.314" ry="2.494"/>
	<path fill="none" stroke="#FFFFFF" stroke-miterlimit="10" d="M113.029,11.326c0.007,1.381-1.023,2.502-2.301,2.508
		c-1.278,0.008-2.319-1.105-2.327-2.482s1.022-2.498,2.301-2.506C111.979,8.838,113.022,9.949,113.029,11.326z"/>
	
		<ellipse transform="matrix(0.0053 1 -1 0.0053 121.6028 -108.8674)" fill="none" stroke="#FFFFFF" stroke-miterlimit="10" cx="115.523" cy="6.689" rx="2.315" ry="2.494"/>
	
		<ellipse transform="matrix(0.0053 1 -1 0.0053 112.0351 -99.5642)" fill="none" stroke="#FFFFFF" stroke-miterlimit="10" cx="106.063" cy="6.532" rx="2.314" ry="2.494"/>
	<circle fill="none" stroke="#FFFFFF" stroke-miterlimit="10" cx="110.715" cy="6.688" r="2.157"/>
</g>
</svg>
