<?xml version="1.0" encoding="utf-8"?>
<!-- Generator: Adobe Illustrator 16.0.0, SVG Export Plug-In . SVG Version: 6.00 Build 0)  -->
<!DOCTYPE svg PUBLIC "-//W3C//DTD SVG 1.1//EN" "http://www.w3.org/Graphics/SVG/1.1/DTD/svg11.dtd">
<svg version="1.1" id="Calque_1" xmlns="http://www.w3.org/2000/svg" xmlns:xlink="http://www.w3.org/1999/xlink" x="0px" y="0px"
	 width="17.938px" height="18.063px" viewBox="74.875 -2.344 17.938 18.063" enable-background="new 74.875 -2.344 17.938 18.063"
	 xml:space="preserve">
<g transform="translate(0,-952.36218)">
	<path fill="none" stroke="#FFFFFF" stroke-miterlimit="10" d="M83.843,955.613c2.755,0,5.196,1.346,6.778,3.438
		c-1.582,2.089-4.024,3.437-6.778,3.437c-2.753,0-5.195-1.348-6.777-3.437C78.646,956.959,81.089,955.613,83.843,955.613z
		 M83.505,956.314c-1.325,0-2.407,1.082-2.407,2.406c0,1.325,1.082,2.407,2.407,2.407c1.324,0,2.404-1.082,2.404-2.407
		C85.909,957.396,84.829,956.314,83.505,956.314z M83.505,957.688c-0.568,0-1.033,0.464-1.033,1.032s0.465,1.032,1.033,1.032
		c0.567,0,1.031-0.464,1.031-1.032S84.072,957.688,83.505,957.688z"/>
</g>
</svg>
